<svg width="1512" height="185" viewBox="0 0 1512 185" fill="none" xmlns="http://www.w3.org/2000/svg">
<path fill-rule="evenodd" clip-rule="evenodd" d="M0 74L50.4 88.8C100.8 103.6 201.6 133.2 302.4 125.8C403.2 118.4 504 74 604.8 44.4C705.6 14.8 806.4 0 907.2 0C1008 0 1108.8 14.8 1209.6 40.7C1310.4 66.6 1411.2 103.6 1461.6 122.1L1512 140.6V185H1461.6C1411.2 185 1310.4 185 1209.6 185C1108.8 185 1008 185 907.2 185C806.4 185 705.6 185 604.8 185C504 185 403.2 185 302.4 185C201.6 185 100.8 185 50.4 185H0V74Z" fill="#406343" fill-opacity="0.5"/>
</svg>
