<svg width="1512" height="185" viewBox="0 0 1512 185" fill="none" xmlns="http://www.w3.org/2000/svg">
<path fill-rule="evenodd" clip-rule="evenodd" d="M0 0L62.6062 6.95087C126.394 13.9017 251.606 27.8035 378 51.3295C504.394 75.3902 629.606 109.61 756 116.561C882.394 123.512 1007.61 102.659 1134 96.2428C1260.39 89.2919 1385.61 96.2428 1449.39 99.4509L1512 102.659V185H1449.39C1385.61 185 1260.39 185 1134 185C1007.61 185 882.394 185 756 185C629.606 185 504.394 185 378 185C251.606 185 126.394 185 62.6062 185H0V0Z" fill="#FFF500" fill-opacity="0.45"/>
</svg>
